<svg xmlns="http://www.w3.org/2000/svg" width="48" height="48" viewBox="0 0 48 48" fill="none">
  <path fill-rule="evenodd" clip-rule="evenodd" d="M4.8 5.99999H43.2V42H4.8V5.99999Z" fill="#f5a900"/>
  <path fill-rule="evenodd" clip-rule="evenodd" d="M2.40001 3.60003H4.8H43.2H45.6V6.00002V42V44.4H43.2H4.8H2.40001V42V6.00002V3.60003ZM31.2 32.4H40.8V34.8H31.2H28.8V32.4V22.8H31.2V32.4ZM38.4 37.2H40.8V39.6H38.4V37.2ZM33.6 37.2H36V39.6H33.6V37.2ZM21.6 37.2H31.2V39.6H21.6V37.2ZM16.8 37.2H19.2V39.6H16.8V37.2ZM7.20001 37.2H14.4V39.6H7.20001V37.2ZM9.6 32.4H24V27.6H26.4V32.4V34.8H24H9.6H7.20001V32.4V30V27.6H9.6H21.6V30H9.6V32.4ZM36 20.4V27.6H38.4V20.4L36 20.4ZM33.6 27.6V20.4L26.4 20.4V22.8V25.2H24H21.6H19.2H16.8H14.4V22.8V10.8V8.40002H16.8H26.4V10.8H16.8V22.8H19.2V15.6V13.2L21.6 13.2L24 13.2H26.4V15.6V18H33.6V15.6H31.2H28.8V13.2V10.8V8.40002H31.2H38.4H40.8V10.8V13.2V15.6H38.4H36V18H40.8V20.4V27.6V30H38.4H36H33.6V27.6ZM7.20001 22.8H9.6V8.40002H12V22.8V25.2H9.6H7.20001V22.8ZM31.2 10.8V13.2H38.4V10.8H31.2ZM24 15.6H21.6V22.8H24V20.4V18V15.6ZM43.2 6.00002H4.8V42H43.2V6.00002Z" fill="#1B1C1F"/>
  <path fill-rule="evenodd" clip-rule="evenodd" d="M21.6 15.6001H24V22.8H21.6V15.6001Z" fill="#FEFEFE"/>
  <path fill-rule="evenodd" clip-rule="evenodd" d="M31.2 10.8H38.4V13.2H31.2V10.8Z" fill="#FEFEFE"/>
  <path fill-rule="evenodd" clip-rule="evenodd" d="M36 20.4H38.4V27.6H36V20.4Z" fill="#FEFEFE"/>
</svg>