<?xml version="1.0" encoding="UTF-8"?>
<svg id="Layer_1" data-name="Layer 1" xmlns="http://www.w3.org/2000/svg" viewBox="0 0 345.82 51.7">
  <path d="M26.67.72h-5.32L0,51.13h4.57l5.73-13.5,5.09-12.06.04-.09c4.25-10.35,7.27-17.6,8.5-20.94h.08c.99,2.85,3.5,8.41,8.14,19.05l.02.04.66,1.52c.67,1.55,1.39,3.2,2.15,4.95h-.03l3.63,8.44.21.49,5.25,12.1h4.9L26.67.72Z" fill="#f5a900" stroke-width="0"/>
  <path d="M63.82,27.58v23.55h-4.57V.72h20.85c11.47,0,17.53,5.33,17.53,13.25,0,6.41-4.4,10.58-10.88,11.81,5.98,1.22,9.97,4.61,9.97,13.18v1.94c0,3.53-.33,8.28.75,10.23h-4.57c-1.08-2.16-.83-6.19-.83-10.51v-1.3c0-8.28-2.82-11.74-13.96-11.74h-14.29ZM63.82,23.98h14.04c10.22,0,14.96-3.31,14.96-9.94,0-6.19-4.65-9.72-13.71-9.72h-15.29v19.66Z" fill="#414042" stroke-width="0"/>
  <path d="M155.3,37.66c-2.74,7.99-9.55,14.04-21.85,14.04-16.7,0-25.51-11.52-25.51-25.71S116.58,0,133.53,0c12.55,0,19.94,6.05,21.85,14.47h-4.49c-2.66-6.55-7.56-10.87-17.61-10.87-14.46,0-20.52,11.45-20.52,22.32s5.98,22.18,20.85,22.18c9.47,0,14.29-4.25,17.2-10.44h4.49Z" fill="#414042" stroke-width="0"/>
  <path d="M167.85.72h4.49v21.96h34.9V.72h4.49v50.4h-4.49v-24.84h-34.9v24.84h-4.49V.72Z" fill="#414042" stroke-width="0"/>
  <path d="M228.84.72h20.77c10.63,0,17.95,5.11,17.95,14.04s-7.23,14.4-18.53,14.4h-15.62v21.96h-4.57V.72ZM233.4,25.56h16.04c9.39,0,13.29-4.32,13.29-10.66,0-6.77-5.15-10.58-12.96-10.58h-16.37v21.24Z" fill="#f5a900" stroke-width="0"/>
  <path d="M283.84.72v50.4h-4.49V.72h4.49Z" fill="#414042" stroke-width="0"/>
  <path d="M300.96,51.12V.72h6.65c9.06,12.1,30.33,40.25,33.98,45.72h.08c-.5-7.27-.42-14.69-.42-22.9V.72h4.57v50.4h-6.15c-8.64-11.67-30.24-40.97-34.4-46.52h-.08c.42,6.62.33,13.97.33,23.11v23.4h-4.57Z" fill="#414042" stroke-width="0"/>
  <line x1="38.79" y1="39.03" x2="38.58" y2="38.54" fill="#414042" stroke-width="0"/>
</svg>