<?xml version="1.0" encoding="UTF-8"?>
<svg id="Layer_1" data-name="Layer 1" xmlns="http://www.w3.org/2000/svg" viewBox="0 0 404.28 456.72">
  <g>
    <path d="M114.6,175.51c-5.32-7.49,4.39-18.07,12.39-13.68,9.06,4.74,18.19,9.64,26.29,15.92,4.84,3.84,2.17,9.87.2,14.46-5.88.93-12.46,2.22-17.51-1.87-7.06-4.95-16.15-7.7-21.37-14.84Z" fill="#fefefe" stroke-width="0"/>
    <path d="M216.71,172.03c14.46-3.73,29.52-1.26,44.28-1.97,6.13.53,15.09-1.51,18.37,5.35,1.03,17.38.08,34.82.4,52.26-8.3.43-16.55,1.36-24.75,2.67.1,8.45.2,16.91.35,25.36-12.74,2.22-25.94,2.57-38.58-.48-4.06-16.17.45-32.68-1.41-49.03-.88-11.4-.66-22.89,1.34-34.16ZM223.25,192.97c14.66,2.3,29.55.53,44.28,1.21.05-.53.15-1.61.2-2.17-14.84.45-29.72-.91-44.48.96ZM227.41,200.57l-2.2,3.61c15.06.23,30.15.48,45.19-.3l-2.09-3.48c-13.55-1.03-27.35-.98-40.9.18ZM225.27,209.45c.68,1.06,2.02,3.15,2.67,4.21,13.98.88,28.08.61,42.04-.83-2.7-1.67-5.53-3.36-8.83-3.08-11.96-.3-23.92-.23-35.88-.3Z" fill="#fefefe" stroke-width="0"/>
    <path d="M288.27,177.83c3.48,19.78.86,40.14,1.69,60.15-2.65,2.32-5.27,4.64-7.9,6.99-2.9-.1-5.78-.18-8.65-.25-4.67,3.81-9.66,7.24-15.14,9.76,4.21-5.02,8.96-9.56,13.7-14.08,4.26-.25,8.53-.48,12.82-.71,1.92-20.54-2.98-42.01,3.48-61.87Z" fill="#fefefe" stroke-width="0"/>
    <path d="M88.01,240.38c18.85-1.14,37.82-.58,56.7-.35,7.24-.3,8.35,8.33,5.02,13.15-20.16.96-40.4.63-60.56.25-8.2,1.34-8.98-12.44-1.16-13.04Z" fill="#fefefe" stroke-width="0"/>
  </g>
  <g>
    <path d="M93.56,53.49c16.33-8.53,34.49-12.39,52.58-15.09,3.48,8.18,7.87,15.92,13.32,22.96-11.2,2.07-22.58,3.41-33.48,6.91-41.48,12.84-75.44,46.38-90.03,87.15-14.18,36.84-10.52,79.4,7.42,114.3,12.92,26.01,33.63,47.74,58.59,62.52,38.53,23.95,87.18,28.59,130.6,17.13,43.78-11.28,81.07-43.45,100.27-84.17,14.53-29.75,17.76-64.62,9.69-96.66-9.92-37.12-33.94-71.1-67.82-89.9-16.68-10.02-35.85-14.16-54.73-17.71,7.24-7.22,14.99-13.88,22.51-20.82,76.28,13.98,133.86,89.12,131.43,165.98.35,53.04-27.91,103.88-69.34,135.97,4.29,3.84,8.58,7.67,12.79,11.61,2.25-1.94,4.42-3.94,6.89-5.6,6.81.28,12.01,5.83,17.06,9.87,15.97,15.14,31.82,30.43,47.92,45.44,7.44,7.37,15.92,16.1,14.99,27.48-.43,17.89-21.14,30.08-37.44,24.5-13.1-3.46-22.25-14.21-31.54-23.29-12.44-11.93-24.58-24.2-37.04-36.08-4.74-4.39-8.58-9.64-11.08-15.59,1.21-1.34,3.68-4.01,4.89-5.35-5.35-4.69-10.65-9.44-15.8-14.36-40.98,18.47-87.73,23.89-131.79,15.01-39.51-9.13-77.01-29.6-103.78-60.35-9.74-13.07-17.97-27.23-25.86-41.46C-.33,239.25-4.6,199.26,5.45,162.62c11.51-46.91,44.21-88.51,88.11-109.13Z" fill="#fff" stroke-width="0"/>
    <path d="M67.06,140.52c39.77-9.66,81.55-15.59,116.82-37.9.23,41.73.33,83.47-.1,125.2-12.57-7.52-24.63-17.23-39.24-20.19-.66-3.66,1.29-8.45-2.2-11.05-7.04-6.08-15.42-10.45-23.54-14.86-9.89-5.78-21.8,7.32-16.3,16.96,3.86,6.01,11.66,7.7,17.51,11.28-7.77,1.41-15.69,1.39-23.49,2.52-2.67,2.65-4.31,6.06-6.21,9.26,2.27,3.94,4.89,7.67,8.18,10.85,11.2-.5,22.46.38,33.63-.81,7.7-2.4,8.33-10.87,6.16-17.46,5.55.23,9.61,4.24,14.05,7.04,10.17,7.22,20.82,13.7,31.69,19.76-.15,33.33.5,66.69-.38,100.02-33.53-15.69-68.66-31.64-93.36-60.2-18.52-20.06-23.29-48.47-23.79-74.84-.15-21.85-.88-43.78.56-65.58ZM114.6,175.51c5.22,7.14,14.31,9.89,21.37,14.84,5.05,4.09,11.63,2.8,17.51,1.87,1.97-4.59,4.64-10.62-.2-14.46-8.1-6.28-17.23-11.18-26.29-15.92-8-4.39-17.71,6.18-12.39,13.68ZM88.01,240.38c-7.82.61-7.04,14.38,1.16,13.04,20.16.38,40.4.71,60.56-.25,3.33-4.82,2.22-13.45-5.02-13.15-18.87-.23-37.85-.78-56.7.35Z" fill="#fff" stroke-width="0"/>
  </g>
  <g>
    <path d="M232.16.08c2.55-.03,5.1-.05,7.65-.08,4.69,6.31,11.3,15.29,4.09,22.38-14.53,17.03-33.31,29.87-49.03,45.72-4.42.63-8.88.88-13.32.86-8.65-9.36-17.97-18.27-24.98-28.94-2.4-8.43,6.91-21.6,15.82-14.56,6.86,3.38,11.03,12.82,19.18,12.84,13.7-12.49,27.4-25.16,40.6-38.23Z" fill="#b8a27c" stroke-width="0"/>
    <path d="M197.03,105.49c4.04.76,8.28,1.19,11.96,3.25,31.82,18.12,69.06,21.65,103.48,32.45.76,24.88.35,49.81.2,74.69-.35,25.59-9.49,51.47-27.73,69.79-18.12,19.23-41.46,32.4-64.8,44.23-7.27,3.91-14.66,7.7-22.63,10.04-1.16-21.07-.25-42.19-.61-63.31.3-57.05-.15-114.1.13-171.15ZM216.71,172.03c-1.99,11.28-2.22,22.76-1.34,34.16,1.87,16.35-2.65,32.85,1.41,49.03,12.64,3.05,25.84,2.7,38.58.48-.15-8.45-.25-16.91-.35-25.36,8.2-1.31,16.45-2.25,24.75-2.67-.33-17.44.63-34.87-.4-52.26-3.28-6.86-12.24-4.82-18.37-5.35-14.76.71-29.82-1.77-44.28,1.97ZM288.27,177.83c-6.46,19.86-1.56,41.33-3.48,61.87-4.29.23-8.55.45-12.82.71-4.74,4.52-9.49,9.06-13.7,14.08,5.48-2.52,10.47-5.95,15.14-9.76,2.88.08,5.75.15,8.65.25,2.62-2.35,5.25-4.67,7.9-6.99-.83-20.01,1.79-40.37-1.69-60.15Z" fill="#b8a27c" stroke-width="0"/>
    <path d="M223.25,192.97c14.76-1.87,29.65-.5,44.48-.96-.05.56-.15,1.64-.2,2.17-14.74-.68-29.62,1.08-44.28-1.21Z" fill="#b8a27c" stroke-width="0"/>
  </g>
  <g>
    <path d="M227.41,200.57c13.55-1.16,27.35-1.21,40.9-.18l2.09,3.48c-15.04.78-30.13.53-45.19.3l2.2-3.61Z" fill="#bdbeb9" stroke-width="0"/>
    <path d="M225.27,209.45c11.96.08,23.92,0,35.88.3,3.31-.28,6.13,1.41,8.83,3.08-13.95,1.44-28.06,1.72-42.04.83-.66-1.06-1.99-3.15-2.67-4.21Z" fill="#bdbeb9" stroke-width="0"/>
  </g>
</svg>