<?xml version="1.0" encoding="UTF-8"?>
<svg id="Layer_1" data-name="Layer 1" xmlns="http://www.w3.org/2000/svg" viewBox="0 0 92.45 71.63">
  <path d="M1.05,71.63l-1.05-1.54s9.68-5.1,17.79-7.43c8.11-2.33,33.74-4.49,33.74-4.49,0,0,10.46-1.96,14.78-4.21,4.32-2.24,8.11-7.29,8.11-7.29,0,0-14.52,6.6-21.32,8.55s-8.11,1.4-8.11,1.4l1.31-7.43,1.7-1.26-.39,3.78,7.19,1.68,1.44-4.91-6.15-1.82,1.44-3.36-2.22-1.26s4.32-3.08,7.85-3.08,15.88-.49,24.33-2.66c5.43-1.4,10.07-4.77,10.07-4.77,0,0-.8,2.88-1.18,4.77-.75,3.77-1.31,9.25-1.31,9.25,0,0-.92,11.21-4.97,16.26-5.33,6.65-15.56,7.43-19.49,7.43s-40.81-4.63-51.27-2.24c-10.46,2.38-12.3,4.63-12.3,4.63Z" fill="#fff" stroke-width="0"/>
  <path d="M36.86,37.57l9.57,2.94-2.09,2.94-.39,3.64-9.03-2.67,1.94-6.87Z" fill="#fff" stroke-width="0"/>
  <path d="M27.21,14.58l9.41,2.38-2.49,6.45-9.55-2.38,2.62-6.45Z" fill="#fff" stroke-width="0"/>
  <polygon points="42.46 0 48.48 1.91 46.7 8.35 40.68 6.44 42.46 0" fill="#b8a27b" stroke-width="0"/>
  <path d="M29.82,7.43l2.75,1.26,3.14,1.4-1.33,3-5.99-2.15,1.44-3.5Z" fill="#fff" stroke-width="0"/>
  <path d="M31.13,4.49l3.01.98,3.16.97-1.59,3.65-3.01-1.26-2.88-1.4,1.31-2.94Z" fill="#b8a27b" stroke-width="0"/>
  <path d="M29.84,29.88l2.75,1.26,3.14,1.4-1.33,3-5.99-2.15,1.44-3.5Z" fill="#fff" stroke-width="0"/>
  <path d="M31.15,26.94l3.01.98,3.16.97-1.59,3.65-3.01-1.26-2.88-1.4,1.31-2.94Z" fill="#b8a27b" stroke-width="0"/>
  <path d="M78.72,7.66l.22,6.71-5.16-2.58,4.94-4.12Z" fill="#b8a27b" stroke-width="0"/>
  <path d="M68.51,5.67l3.02,5.88-5.69.19,2.67-6.07Z" fill="#b8a27b" stroke-width="0"/>
  <path d="M58.48,8.42l5.17,3.78-5,2.93-.18-6.71Z" fill="#b8a27b" stroke-width="0"/>
  <path d="M50.91,15.24l6.21.87-3.23,5.03-2.98-5.9Z" fill="#b8a27b" stroke-width="0"/>
  <path d="M47.26,24.19l5.87-2.34-.66,6.06-5.21-3.73Z" fill="#b8a27b" stroke-width="0"/>
  <path d="M48.14,34.2l4.17-5,2.06,5.69-6.23-.69Z" fill="#b8a27b" stroke-width="0"/>
  <path d="M87.23,13.94l-2.52,6.15-3.6-4.73,6.12-1.42Z" fill="#b8a27b" stroke-width="0"/>
  <path d="M91.59,22.21l-4.74,4.39-1.36-5.93,6.1,1.54Z" fill="#b8a27b" stroke-width="0"/>
  <path d="M92.45,30.2l-5.69,2.81.23-6.1,5.46,3.29Z" fill="#b8a27b" stroke-width="0"/>
  <path d="M69.72,12.9c8.67,0,15.7,6.59,15.7,14.72,0,2.44-.63,4.74-1.75,6.76l-25.44,3.26c-2.61-2.63-4.2-6.15-4.2-10.02,0-8.13,7.03-14.72,15.7-14.72Z" fill="#b8a27b" stroke-width="0"/>
</svg>