<?xml version="1.0" encoding="UTF-8"?>
<svg id="Layer_1" data-name="Layer 1" xmlns="http://www.w3.org/2000/svg" viewBox="0 0 95.38 50.41">
  <path d="M26.67,0h-5.32L0,50.41h4.57l5.73-13.5,5.09-12.06.04-.09c4.25-10.35,7.27-17.6,8.5-20.94h.08c.99,2.85,3.5,8.41,8.14,19.05l.02.04.66,1.52c.67,1.55,1.39,3.2,2.15,4.95h-.03l3.63,8.44.21.49,5.25,12.1h4.9L26.67,0Z" fill="#f5a900" stroke-width="0"/>
  <path d="M56.67,0h20.77C88.07,0,95.38,5.11,95.38,14.04s-7.23,14.4-18.53,14.4h-15.62v21.96h-4.57V0ZM61.24,24.84h16.04c9.39,0,13.29-4.32,13.29-10.66,0-6.77-5.15-10.58-12.96-10.58h-16.37v21.24Z" fill="#f5a900" stroke-width="0"/>
  <line x1="38.79" y1="38.31" x2="38.58" y2="37.82" fill="#414042" stroke-width="0"/>
</svg>