<?xml version="1.0" encoding="UTF-8"?>
<svg id="Layer_1" data-name="Layer 1" xmlns="http://www.w3.org/2000/svg" viewBox="0 0 500.4 510.48">
  <defs>
    <style>
      .cls-1 {
        fill: #0c3833;
      }

      .cls-1, .cls-2 {
        stroke-width: 0px;
      }

      .cls-2 {
        fill: #f5a900;
      }
    </style>
  </defs>
  <path class="cls-2" d="M256.11.09c34.55-.07,69.11.11,103.66-.09.3,63.28.05,126.59.12,189.88-34.58.02-69.15-.04-103.73.03-.14-63.27-.03-126.55-.05-189.82ZM317.4,89.6c-4.82,1.84-4.47,9.64.54,10.98,4.58.59,9.27.34,13.88.16,4.37-.48,6.21-6.4,3.46-9.61-1.88-2.5-5.31-2-8.05-2.07-3.27.18-6.67-.44-9.83.54Z"/>
  <path class="cls-2" d="M371.6,189.88c.05-63.29-.12-126.58.09-189.86,34.57.15,69.13.01,103.7.07.03,63.25-.02,126.49.03,189.74-34.61.11-69.21.02-103.82.05ZM399.43,89.58c-3.62,1.43-4.72,6.64-1.98,9.41,1.94,2.27,5.14,1.88,7.8,1.91,3.05-.1,6.14.24,9.16-.28,4.26-.97,5.54-7.06,2.45-9.95-1.98-2.03-5.05-1.51-7.6-1.61-3.27.18-6.66-.43-9.83.52Z"/>
  <path class="cls-2" d="M121.81,5.82c8.56-.01,17.12-.01,25.69,0,.07,17.71-.13,35.42.1,53.12-8.59.32-17.19.05-25.79.14-.02-17.75,0-35.51,0-53.26Z"/>
  <path class="cls-1" d="M79.02,110.09c13.1-13.12,26.24-26.18,39.36-39.27,10.89-.01,21.79-.02,32.69.01,13.09,13.09,26.22,26.15,39.31,39.25-37.12.01-74.24-.01-111.36.01Z"/>
  <path class="cls-1" d="M70.31,122.15c42.89,0,85.79-.01,128.69.01v11.44c-42.9.02-85.8.02-128.69.01,0-3.82,0-7.64,0-11.46Z"/>
  <path class="cls-1" d="M69,209.13c1.55-4.62,8.73-4.99,10.73-.54,1.33,3.85.41,8.08.67,12.08,4.81-.02,9.63.09,14.44-.08,2.43-4.15,4.92-8.27,7.51-12.33,1.51-2.68,5.26-3.53,7.84-1.93,2.75,1.48,3.69,5.32,2.03,7.94-2.72,4.9-5.95,9.5-8.61,14.43-.45,2.49-.16,5.05-.2,7.57-3.96-.02-7.91.13-11.86-.13.06-.9.19-2.69.25-3.59-11.69-.17-23.39-.02-35.09-.07v3.78c-3.91.03-7.81.03-11.72.01-.02-2.64.17-5.29-.11-7.91-2.59-5.19-6.19-9.86-8.61-15.14-2.08-5.39,6.07-10.1,9.75-5.7,3.08,4.15,5.39,8.82,8.19,13.16,4.8,0,9.59,0,14.39,0,.19-3.83-.45-7.77.4-11.54Z"/>
  <path class="cls-1" d="M179.77,208.86c1.85-4.52,9.04-4.38,10.74.19.93,3.77.13,7.77.39,11.62,4.77,0,9.53,0,14.3,0,2.66-4.17,5.06-8.51,7.81-12.62,1.64-2.61,5.46-3.32,7.99-1.6,2.5,1.48,3.41,5.02,1.95,7.54-2.69,4.92-5.97,9.5-8.68,14.41-.79,2.5-.24,5.25-.35,7.86-3.91.02-7.81.01-11.71.01-.01-1.27-.02-2.54-.03-3.8h-34.86c-.01,1.26-.02,2.53-.03,3.79-3.9.01-7.8.02-11.71,0-.01-2.65.19-5.31-.11-7.94-2.48-4.91-5.82-9.34-8.36-14.21-1.42-2.62-.24-6.2,2.39-7.54,2.49-1.44,6.05-.67,7.56,1.82,2.68,4.05,5.07,8.29,7.66,12.41,4.82.01,9.64,0,14.46.01.26-3.96-.57-8.11.59-11.96Z"/>
  <path class="cls-1" d="M.01,248.09c166.79-.01,333.59-.01,500.38,0,.01,5.79.01,11.59,0,17.38-166.79.01-333.59.02-500.38,0,0-5.79-.02-11.59,0-17.38Z"/>
  <path class="cls-2" d="M25.01,277.15c73.09-.01,146.19-.01,219.28,0,.02,77.78.02,155.55.01,233.32-73.1.01-146.2.01-219.29,0-.02-77.77,0-155.54,0-233.32ZM51.42,295.53c-5.26,1.77-8.97,7.11-8.8,12.66.05,4.87-.3,9.78.27,14.63,1.16,6.58,7.79,11.15,14.34,10.6,6.77-.34,14.96,1.58,20.21-3.94,5.69-5.55,3.43-14.1,3.84-21.16.34-7.12-5.9-13.7-13.07-13.49-5.58.21-11.33-.68-16.79.7ZM105.46,295.66c-5.49,2.02-8.93,7.87-8.47,13.65.42,6.16-1.39,13.18,2.5,18.56,2.79,4.1,7.91,5.86,12.71,5.55,6.51-.28,14.27,1.42,19.38-3.77,5.84-5.5,3.61-14.17,4-21.28.38-7.24-6.05-13.88-13.33-13.55-5.58.26-11.36-.76-16.79.84ZM159.55,295.77c-4.95,1.96-8.29,7.14-8.13,12.46.06,4.88-.31,9.79.28,14.65,1.2,6.62,7.91,11.14,14.49,10.54,6.74-.31,14.91,1.53,20.07-4.03,5.17-5.02,3.46-12.71,3.75-19.14.39-4.96-1.38-10.28-5.68-13.1-4.08-3.06-9.41-2.25-14.17-2.34-3.54.08-7.24-.4-10.61.96ZM47.63,351.79c-3.1.31-5.32,3.43-5.02,6.46-.03,41.03.01,82.07-.02,123.1.04,2.46-.18,4.96.25,7.41.71,2.74,3.57,4.46,6.33,4.19h171.13c3.67.42,6.92-2.99,6.49-6.62.03-42.35-.02-84.69.03-127.04.04-2.07-.13-4.4-1.78-5.89-1.74-1.91-4.48-1.75-6.83-1.74-56.86.12-113.73-.14-170.58.13Z"/>
  <path class="cls-2" d="M256.1,277.15c73.1-.01,146.2-.01,219.29,0,0,36.94.04,73.87,0,110.8-73.09-.01-146.17,0-219.26,0-.05-36.93-.01-73.87-.02-110.8ZM338.59,329.57c-1.97,3.17-.16,8.07,3.65,8.71,5.87.48,11.78.06,17.67.2.07,2.92-.35,5.92.4,8.77,1.34,3.92,7.04,5,9.77,1.9,2.59-2.92,1.33-7.15,1.62-10.67,5.86-.06,11.72.11,17.57-.06,3.26.15,5.92-2.99,5.59-6.16-.04-2.98-2.69-5.63-5.72-5.42-14.95-.07-29.9-.01-44.85-.03-2.21-.14-4.61.71-5.7,2.76Z"/>
  <path class="cls-1" d="M54.88,306.79c4.64-.37,9.34-.23,14-.06l.5.56c.28,4.7.14,9.43,0,14.15-5,.18-10.06.5-15.03-.19.29-4.76-.82-9.99.53-14.46Z"/>
  <path class="cls-1" d="M109.52,306.73c4.66-.13,9.39-.4,14.02.14.76,4.6.34,9.44.2,14.12-4.6,1.39-9.91.37-14.77.47-.24-4.74-.3-9.5-.05-14.23l.6-.5Z"/>
  <path class="cls-1" d="M163.19,307c4.83-.71,9.79-.44,14.66-.22,1.22,4.54.38,9.84.36,14.66-4.97.22-9.96.38-14.91-.09-.19-4.79-.05-9.57-.11-14.35Z"/>
  <path class="cls-1" d="M54.31,363.48h160.69c.01,39.22,0,78.44,0,117.66-53.56.02-107.13,0-160.69.01,0-39.23,0-78.45,0-117.67Z"/>
  <path class="cls-2" d="M256.11,399.68h172.08c15.77.1,31.55-.19,47.31.14-.24,36.88-.02,73.77-.11,110.65-73.09.02-146.19.01-219.28,0-.02-36.93-.02-73.86,0-110.79ZM339.2,451.22c-2.78,3.03-1.24,8.85,2.97,9.56,5.89.41,11.81.05,17.71.16.31,3.77-1.14,8.62,2.28,11.36,3.04,2.63,8.37.93,9.31-2.99.41-2.77.21-5.58.24-8.37,5.17,0,10.34,0,15.51.03,1.87-.05,3.98.09,5.52-1.21,2.8-2.2,2.83-6.96.08-9.2-1.52-1.35-3.66-1.26-5.55-1.3-14.04.03-28.08.02-42.12.01-2.11-.04-4.53.16-5.95,1.95Z"/>
</svg>