<?xml version="1.0" encoding="UTF-8"?>
<svg id="Layer_1" data-name="Layer 1" xmlns="http://www.w3.org/2000/svg" viewBox="0 0 501.77 475.27">
  <defs>
    <style>
      .cls-1 {
        fill: #0c3833;
      }

      .cls-1, .cls-2 {
        stroke-width: 0px;
      }

      .cls-2 {
        fill: #f5a900;
      }
    </style>
  </defs>
  <path class="cls-1" d="M281.12,2.99c-.3-2.06,1.81-3.48,3.69-2.84,9.61,1.36,19.16,5.05,26.45,11.58,7.83,7.23,11.75,17.76,12.9,28.17,2.91,2.13,5.65,4.5,8.17,7.09,2.15-8.98,6.31-17.91,13.8-23.64,7.59-5.9,17.1-9.34,26.67-9.96,2.38-.13,2.66,2.98,2.64,4.73-.37,11.8-4.85,23.81-13.7,31.88-5.85,5.51-13.58,8.28-21.18,10.43,4.96,12.48,5.18,26.3,3.03,39.41,12.11.03,24.23-.09,36.34.04,4.1-.5,7.21,4.53,4.76,7.91-2.05,3.14-6.25,2.13-9.42,2.37-4.52,18.99-9.07,37.98-13.59,56.97-.3,2.2-1.91,3.76-3.57,5.06,10.26-.36,20.54-.04,30.81-.18,3.51-.12,7.47.3,9.89,3.19,3.34,3.44,2.5,8.55,2.63,12.9-.09,4.32.65,9.46-2.83,12.77-3.25,3.55-8.41,2.89-12.74,2.92-93.69-.06-187.37.01-281.06-.04-3.27.11-6.48-1.52-8.28-4.25-2.4-3.3-1.71-7.59-1.85-11.41.12-4.23-.63-9.25,2.73-12.49,2.37-2.68,6.11-3.17,9.48-3.06,6.72.11,13.45-.16,20.16.21-6.08-1-11.48-6.17-11.29-12.58-.11-37.02-.03-74.05-.04-111.08-.57-7.22,5.95-13.72,13.16-13.24,34.66,0,69.33-.08,104,.04,6.97-.15,12.89,6.36,12.36,13.26,0,36.99.06,73.99-.03,110.97.19,6.37-5.08,11.42-11.04,12.61,28.09-.27,56.2-.26,84.29-.01-1.75-1.38-3.48-3-3.83-5.32-4.54-19.07-9.03-38.17-13.57-57.24-2.55-.14-5.22.26-7.66-.63-3.4-1.65-3.47-7.25-.16-9.02,1.75-.81,3.75-.62,5.63-.71,10.95.07,21.9.01,32.85.04.3-3.06.65-6.12,1.04-9.18-8.74,1.89-18.04,2.23-26.5-1.06-10.17-3.82-18.1-12.11-23.53-21.31-1.47-1.97-.38-4.58,1.91-5.22,11.15-4.14,24.09-4.83,35.08.21,4.86,2.15,8.76,5.85,12.63,9.39-1.61-8.59-5.24-17.28-12.37-22.74-3.31-2.96-7.86-3.49-11.85-5.08-8.53-3.28-16.59-8.84-20.98-17.05-4.12-7.55-5.98-16.25-6.03-24.81ZM139.78,59.9c0,29.53,0,59.07,0,88.6h80.89V59.9h-80.89Z"/>
  <path class="cls-2" d="M77.98,288.21c10.9-13.13,27.87-20.71,44.9-20.43,85-.03,170-.02,255,0,17-.3,33.95,7.27,44.83,20.38,9.62,11.22,14.22,26.22,13.5,40.91-4.26,4.23-7.03,9.97-7.1,16.03-.13,10.19-.03,20.38-.03,30.57-6.28-4.42-14.05-5.47-21.55-4.98-5.2-17.43-4.11-36.14.31-53.62.64-2.71,1.7-6.06-.7-8.25-1.97-2.43-5.32-1.02-7.72-.17-13.75,5.37-29.14,7.41-43.57,3.68-4.65-1.02-8.95-3.07-13.37-4.72-2.63-1.16-6.34.4-6.73,3.4.01,2.77.88,5.44,1.47,8.12,3.84,16.72,3.68,34.3-.31,50.99-4.74.03-9.64.04-14.07,1.94-4.37,1.65-7.98,4.73-11.03,8.2-2.9-3.23-6.2-6.2-10.26-7.86-4.95-2.34-10.53-2.29-15.88-2.26-5.15-17.26-4.13-35.78.2-53.08.59-2.8,1.94-6.23-.43-8.59-1.82-2.51-5.19-1.31-7.58-.44-13.78,5.41-29.2,7.54-43.69,3.84-4.68-1.03-9.02-3.07-13.47-4.74-2.78-1.37-6.96.63-6.8,3.96.12,2.36.8,4.64,1.33,6.93,3.99,16.93,3.85,34.76-.19,51.66-4.95-.05-10.09-.1-14.71,1.93-4.32,1.65-7.89,4.72-10.9,8.16-3.02-3.47-6.63-6.54-10.97-8.19-4.93-2.13-10.4-1.94-15.64-1.89-5.23-17.43-4.13-36.16.29-53.64.67-2.76,1.69-6.2-.81-8.37-2.37-2.57-6-.5-8.69.34-16.22,6.26-34.89,7.32-51.09.46-3.02-1.09-6.56-3.57-9.66-1.35-2.89,1.78-1.62,5.49-1.04,8.17,4.49,17.57,4.57,36.2.34,53.84-7.17-.47-14.52.82-20.5,5,0-9.7.11-19.4-.04-29.1-.1-6.04-2.86-11.74-7.1-15.96-.69-14.67,3.83-29.66,13.46-40.87Z"/>
  <path class="cls-2" d="M103.44,319.54c15.81,4.7,32.87,4.23,48.61-.52-3.25,15.81-3.76,32.32-.01,48.09-15.96-3.46-32.64-3.56-48.6-.01,2.99-15.68,2.99-31.89,0-47.56Z"/>
  <path class="cls-2" d="M226.32,319.54c15.81,4.69,32.87,4.24,48.61-.53-3.25,15.81-3.77,32.33-.01,48.1-15.96-3.47-32.64-3.55-48.59-.02,2.98-15.67,2.99-31.88-.01-47.55Z"/>
  <path class="cls-2" d="M348.7,319.53c15.01,4.71,31.21,4.24,46.17-.52-3.09,15.81-3.58,32.33,0,48.1-15.17-3.36-31.02-3.66-46.17-.01,2.84-15.68,2.83-31.89,0-47.57Z"/>
  <path class="cls-2" d="M43.9,332.14c8.85-3.66,19.09,4.5,18.06,13.89.01,21.38-.06,42.78.02,64.16-.2,2.55,1.6,5.16,4.23,5.42,2.87.33,5.77.14,8.65.17,120.01-.05,240.02.03,360.02-.04,3.16.33,5.81-2.45,5.42-5.59.08-21.72-.03-43.44.04-65.15-.27-7.26,6.21-13.9,13.49-13.69,7.33-.27,13.87,6.39,13.6,13.7.04,30.72.03,61.45.01,92.17.22,4.18-2.54,8.41-6.68,9.42-3.7.67-7.49.31-11.22.36-.01,5.98-.01,11.96,0,17.94,4.78.1,9.58-.23,14.36.13,4.07.25,5.33,6.05,2.68,8.68-1.17,1.3-3.04,1.36-4.65,1.45-141.69.04-283.38-.03-425.07.03-1.92-.13-4.2.11-5.68-1.38-2.82-2.61-1.5-8.48,2.63-8.74,5.78-.44,11.59-.04,17.39-.17v-17.93c-4.35-.21-9.45.96-13.06-2.13-2.69-2.06-3.47-5.57-3.34-8.79.06-30.33-.03-60.66.04-90.99-.2-5.71,3.7-11.09,9.06-12.92ZM87.04,446.97v17.93h325.63v-17.93c-108.54-.01-217.09,0-325.63,0Z"/>
  <path class="cls-1" d="M75.72,383.97c3.69-4.41,9.69-5.49,15.16-5.1,26,.08,52.01-.02,78.01.05,6.19-.17,12.19,3.81,14.38,9.61,1.83,5.46.81,11.32,1.04,16.97h-112.62c.25-7.23-1.54-15.77,4.03-21.53Z"/>
  <path class="cls-1" d="M198.17,384.46c3.45-4.42,9.24-6,14.65-5.59,26.35.09,52.71-.03,79.06.06,6.56-.17,12.81,4.4,14.64,10.69,1.24,5.19.5,10.59.67,15.88h-112.62c.28-7.04-1.5-15.23,3.6-21.04Z"/>
  <path class="cls-1" d="M316.96,394.06c.03-8.25,7.72-15.51,15.95-15.15,26.98-.01,53.96-.02,80.94,0,6.78-.29,13.36,4.38,15.11,10.97,1.13,5.12.43,10.42.6,15.61-37.54.02-75.08,0-112.62,0,0-3.82-.12-7.63.02-11.44Z"/>
  <path class="cls-1" d="M3.04,465.3c3.87-.7,7.89-.61,11.79-.13,4.77.8,4.77,8.88.02,9.72-3.88.47-7.88.57-11.74-.1-4.12-1.3-4.15-8.14-.07-9.49Z"/>
  <path class="cls-1" d="M480.34,465.74c5.27-1.67,11.1-.66,16.59-.73,3.95-.08,6.18,4.97,3.96,8.06-1.49,2.35-4.58,2.04-6.98,2.13-3.98-.08-7.99.21-11.95-.26-4.23-.63-5.05-7.05-1.62-9.2Z"/>
</svg>