<?xml version="1.0" encoding="UTF-8"?>
<svg id="Layer_1" data-name="Layer 1" xmlns="http://www.w3.org/2000/svg" viewBox="0 0 501.36 460.47">
  <defs>
    <style>
      .cls-1 {
        fill: #0c3833;
      }

      .cls-1, .cls-2 {
        stroke-width: 0px;
      }

      .cls-2 {
        fill: #f5a900;
      }
    </style>
  </defs>
  <path class="cls-2" d="M291.01,5.7c7.64-4.67,16.9-6.67,25.77-5.26,13.3,1.9,25.2,11,30.73,23.22,6.43,13.58,4.54,30.81-5.25,42.33-3.19,3.89-7.27,6.93-11.6,9.44-32.18,19.13-64.39,38.24-96.57,57.38-2.99,1.56-4.31,5.36-3.3,8.52.79,2.32,2.18,4.37,3.38,6.5,17.48,30.21,34.89,60.47,52.4,90.67.85,1.99,3.38,1.61,5.11,2.2,15,2.69,29.03,8.98,43.92,12.12,32.81,7.28,67.72,4.67,99.08-7.42,15.05-5.88,30-12.02,45.04-17.94,5.81-2.33,12.82-.62,17.14,3.84,5.21,5.21,5.94,14.05,1.71,20.08-3.58,5.66-10.58,6.95-16.27,9.51-16.32,6.31-32.33,13.49-49.01,18.83-36.48,11.34-76.16,12.17-113.06,2.26-6.79-1.72-13.41-4.07-20.1-6.15-28.55-8.87-59.62-9.41-88.48-1.56-8.47,2.2-16.56,5.61-24.98,7.97-37.91,11.07-79.24,9.96-116.49-3.17-19.87-7.05-39.61-14.45-59.46-21.57-7.95-2.59-12.68-12.05-9.93-19.96,2.38-8.18,12.05-13.19,20.1-10.34,16.28,5.78,32.46,11.88,48.76,17.62,30.59-17.34,61.4-34.29,92.03-51.55,3.69-1.92,4.6-7.01,2.52-10.44-6.35-11.26-12.91-22.4-19.35-33.61-3.79-6.63-8.19-13.18-9.52-20.86-3.38-15.51,3.57-32.84,17.3-41.06,46.08-27.27,92.26-54.38,138.38-81.6Z"/>
  <path class="cls-2" d="M336.29,99.19c12.49-1.88,25.48-.32,37.13,4.57,15.13,6.25,27.81,18.12,35.16,32.73,7.15,14.04,9.21,30.55,5.86,45.94-3.43,16.11-12.88,30.81-26.05,40.69-22.23,17.23-55.13,18.59-78.7,3.23-13.53-8.49-23.95-21.81-28.88-37-5.62-17-4.32-36.19,3.67-52.23,9.74-20.07,29.71-34.76,51.81-37.93Z"/>
  <path class="cls-1" d="M482.15,312.08c7.87-1.79,16.53,3.43,18.57,11.25,2.39,7.69-2.12,16.64-9.68,19.37-15.23,6.14-30.48,12.26-45.77,18.24-40.21,15.29-85.29,17.45-126.74,5.92-9.1-2.41-17.87-5.92-27.03-8.1-27.63-6.88-57.12-6.16-84.36,2.14-4.81,1.43-9.51,3.21-14.28,4.77-38.47,12.64-80.97,12.66-119.4-.16-21.12-7.34-42.05-15.25-63.1-22.82-7.87-2.75-12.38-12.33-9.46-20.15,2.58-8.16,12.45-12.95,20.46-9.87,19.63,7.08,39.21,14.31,58.85,21.36,29.53,10.49,62.16,11.98,92.51,4.18,10-2.43,19.48-6.52,29.41-9.18,34.64-9.65,72.01-9.22,106.42,1.25,6.68,2.03,13.25,4.41,20.01,6.17,28.49,7.58,58.93,7.66,87.46.25,15.65-3.95,30.32-10.79,45.33-16.59,6.95-2.62,13.71-5.81,20.8-8.03Z"/>
  <path class="cls-1" d="M11.06,397.9c3.52-1.27,7.41-.99,10.88.31,19.61,7.1,39.19,14.3,58.82,21.35,34.25,12.09,72.61,11.84,106.75-.53,35.78-13.09,75.48-15.21,112.41-5.81,9.69,2.33,18.97,6.02,28.59,8.55,34.74,9.28,72.35,7.29,105.91-5.61,15.27-5.94,30.41-12.21,45.67-18.16,7.42-2.83,16.53,1.06,19.74,8.3,3.47,7,.71,16.28-5.97,20.3-4.95,2.64-10.34,4.32-15.49,6.53-19.23,7.42-38.05,16.24-58.24,20.84-37.43,9-77.34,6.98-113.75-5.46-26.46-9.28-55.35-11.6-82.9-6.3-9.55,1.75-18.83,4.62-27.95,7.9-40.15,13.86-84.94,13.85-125.02-.26-19.93-7.05-39.72-14.5-59.63-21.62-7.9-2.52-12.75-11.78-10.19-19.69,1.4-5,5.45-9.06,10.37-10.64Z"/>
</svg>