<?xml version="1.0" encoding="UTF-8"?>
<svg id="Layer_1" data-name="Layer 1" xmlns="http://www.w3.org/2000/svg" viewBox="0 0 512 451.78">
  <defs>
    <style>
      .cls-1 {
        fill: #0c3833;
      }

      .cls-1, .cls-2 {
        stroke-width: 0px;
      }

      .cls-2 {
        fill: #f5a900;
      }
    </style>
  </defs>
  <path class="cls-2" d="M240.96,14.9c-.13-7.99,7.14-15.12,15.11-14.89,8.32-.17,15.56,7.59,14.99,15.86,0,7.36,0,14.72-.01,22.08-10.03,0-20.07,0-30.1,0,0-7.68-.05-15.37.01-23.05Z"/>
  <path class="cls-2" d="M210.13,94.93c13.72-14.77,29.28-27.76,45.86-39.2,30.45,20.77,57.09,47.49,76.15,79.14,10.21,16.72,18.22,34.74,24.34,53.34-66.99.02-133.97.02-200.96,0,11.16-34.56,29.71-66.79,54.61-93.28Z"/>
  <path class="cls-2" d="M63.29,108.16c44.13-25.53,92.55-44.3,143.13-51.77-9.08,8.23-17.73,16.95-25.72,26.24-26.41,30.45-45.52,66.92-56.71,105.59-36.34,0-72.68.02-109.02-.01-7.41.14-13.93-5.97-14.97-13.2v-18.57c.67-4.02,2.64-7.9,6.01-10.3,18.34-13.74,37.41-26.55,57.28-37.98Z"/>
  <path class="cls-2" d="M305.62,56.4c71.82,10.51,138.44,43.85,196.32,86.71,4.88,3.06,9.48,7.41,10.06,13.5v18.12c-.85,7.37-7.49,13.65-15.01,13.48-36.33.03-72.65.01-108.98.01-4.44-14.95-9.83-29.63-16.53-43.72-15.68-33.44-38.4-63.44-65.86-88.1Z"/>
  <path class="cls-2" d="M240.96,218.36c10.03-.01,20.05-.01,30.08,0,.05,67.76-.01,135.51.03,203.26,75.3.03,150.61-.05,225.91.04,7.44-.17,13.91,5.94,15.02,13.15v3.31c-.65,5.15-3.86,9.96-8.61,12.16-3.84,1.99-8.28,1.4-12.44,1.48-158.67-.02-317.34.02-476.01-.02-7.47.13-14.06-6.11-14.94-13.43v-3.25c.93-7.75,8.22-13.98,16.05-13.43,74.96-.01,149.92,0,224.88-.01.04-67.75-.02-135.5.03-203.26Z"/>
  <path class="cls-1" d="M58.29,301.32c40.58-.37,81.19-.07,121.78-.15,8.06-.46,15.63,6.51,15.66,14.62.1,9.37,0,18.75.04,28.13.06,5.35-.44,10.75-2.08,15.87-4.13,13.53-15.02,24.77-28.44,29.27-5.5,1.95-11.37,2.56-17.18,2.5-19.33-.03-38.67.05-58-.04-12.37-.05-24.59-5.45-32.92-14.59-7.52-8.07-11.85-19-11.94-30.03-.05-10.37-.06-20.74,0-31.11.03-7.16,5.99-13.66,13.08-14.47Z"/>
  <path class="cls-1" d="M329.39,301.31c40.53-.36,81.09-.06,121.63-.15,8.11-.5,15.77,6.49,15.77,14.66.03,10.82.11,21.64-.05,32.46-.52,17.87-12.81,34.62-29.67,40.51-8,3.12-16.7,2.82-25.13,2.77-16.94-.03-33.87.05-50.81-.04-12.65-.04-25.12-5.7-33.47-15.19-7.19-8.01-11.3-18.68-11.39-29.44-.05-10.35-.05-20.7,0-31.04,0-7.2,6-13.74,13.12-14.54Z"/>
</svg>