<?xml version="1.0" encoding="UTF-8"?>
<svg id="Layer_1" data-name="Layer 1" xmlns="http://www.w3.org/2000/svg" viewBox="0 0 482.12 436.69">
  <defs>
    <style>
      .cls-1 {
        fill: #0c3833;
      }

      .cls-1, .cls-2 {
        stroke-width: 0px;
      }

      .cls-2 {
        fill: #f5a900;
      }
    </style>
  </defs>
  <path class="cls-1" d="M132.8,0C200.06,0,267.32,0,334.58,0c.01,31.61.01,63.22,0,94.82-7.61-5.67-15.18-11.4-22.78-17.09-3.01-2.44-7.56-2.75-10.81-.58-16.53,10.84-32.78,22.1-49.43,32.74-25.22-17.13-50.73-33.84-76.04-50.83-2.73-2.15-7.14-2.93-9.75-.18-11.01,10.94-21.91,22-32.95,32.91-.05-30.59-.02-61.19-.02-91.79ZM249.64,21.92c-10.57,2.59-18.64,12.62-18.92,23.49-.77,11.05,6.54,22.03,17.1,25.44,10.51,3.76,23.27-.18,29.52-9.51,7.01-9.88,5.71-24.65-3.09-33.02-6.31-6.3-16.04-8.66-24.61-6.4Z"/>
  <path class="cls-1" d="M252.6,36.76c6.8-2.76,15.05,3.11,14.17,10.54.06,8.06-10.26,12.73-16.55,8.06-6.85-4.3-5.47-16.24,2.38-18.6Z"/>
  <path class="cls-2" d="M132.77,113c13.03-12.86,26.13-25.64,39.19-38.47,24.28,16.06,48.52,32.18,72.78,48.27,2.32,1.51,4.63,3.32,7.47,3.67,2.32-.23,4.26-1.7,6.2-2.87,15.85-10.61,31.75-21.14,47.6-31.75,9.51,7.24,18.99,14.53,28.52,21.74.12,17.34.03,34.67.05,52.01-67.26.01-134.52.01-201.78,0-.03-17.53.03-35.06-.03-52.6Z"/>
  <path class="cls-1" d="M17.62,184.4c.59-3.55,3.99-6.1,7.54-5.96,13.36-.07,26.73-.04,40.1-.01,3.61-.26,7.31,2.11,7.97,5.8,5.84,25.27,11.52,50.59,17.32,75.88,1.52,4.52-2.7,9.55-7.33,9.39-10.07.11-20.15,0-30.23.04-.01,25.6-.01,51.19,0,76.79-5.02.02-10.04.01-15.06,0-.01-25.84.01-51.68-.01-77.52-9.89-.04-19.79.06-29.68-.04-4.6-.02-9.63-4.51-7.88-9.39,5.76-24.99,11.47-50,17.26-74.98Z"/>
  <path class="cls-1" d="M408.44,184.28c.61-3.6,4.15-6.04,7.71-5.84,13.71-.04,27.43-.08,41.14,0,3.56-.16,6.93,2.44,7.53,5.98,5.43,23.37,10.75,46.78,16.16,70.15.67,3.04,1.83,6.26.62,9.32-1.3,2.9-3.96,5.66-7.37,5.58-10.15.15-20.3.02-30.45.05-.04,25.6-.02,51.19-.01,76.79-5.03.03-10.06.04-15.08,0,.03-25.83,0-51.66,0-77.5-9.86-.04-19.72.05-29.57-.03-4.67.03-9.76-4.52-7.98-9.44,5.76-25.02,11.47-50.05,17.29-75.06Z"/>
  <path class="cls-2" d="M143.39,266.21c-.1-5.34,4.53-10.17,9.9-10.15,17.98-.14,35.96-.01,53.94-.06,3.75-.19,7.69,1.39,9.71,4.67,1.72,2.53,1.72,5.71,1.71,8.66-.07,10.61.05,21.22-.06,31.83-25.08-.05-50.17,0-75.25-.02.03-11.64-.07-23.29.05-34.93Z"/>
  <path class="cls-2" d="M271.38,266.25c-.08-5.29,4.4-10.43,9.87-10.22,18-.06,36,0,54-.03,5.93-.6,11.6,4.41,11.34,10.44.07,11.57.07,23.16-.01,34.73-25.08-.07-50.16-.01-75.24-.03.03-11.63-.07-23.26.04-34.89Z"/>
  <path class="cls-2" d="M98.83,325.96c5.9-6.46,14.68-9.92,23.38-9.75,79.35-.01,158.69-.01,238.03,0,7.76-.12,15.58,2.55,21.37,7.78,6.59,5.79,10.26,14.56,10.18,23.31.02,29.79.05,59.59,0,89.38-100.38-.02-200.76,0-301.13,0-.03-29.78-.02-59.56-.01-89.34-.07-7.82,2.81-15.67,8.19-21.38Z"/>
  <path class="cls-2" d="M15.34,361.4c20.07-.01,40.15-.01,60.23,0,0,25.09,0,50.19,0,75.29-20.08,0-40.16,0-60.23,0,0-25.1,0-50.19,0-75.29Z"/>
  <path class="cls-2" d="M406.87,361.4c20.08,0,40.16-.01,60.23,0,.01,25.1.01,50.19,0,75.29-20.07,0-40.15,0-60.23,0,0-25.1,0-50.2,0-75.29Z"/>
</svg>