<?xml version="1.0" encoding="UTF-8"?>
<svg id="Layer_1" data-name="Layer 1" xmlns="http://www.w3.org/2000/svg" viewBox="0 0 512 661">
  <defs>
    <style>
      .cls-1 {
        fill: #0c3833;
      }

      .cls-1, .cls-2 {
        stroke-width: 0px;
      }

      .cls-2 {
        fill: #f5a900;
      }
    </style>
  </defs>
  <path class="cls-2" d="M35.46,0h440.76c8.88.92,17.51,4.58,23.92,10.86,7.23,6.88,11.46,16.66,11.86,26.6v587.71c-.89,8.16-3.96,16.16-9.42,22.36-6.74,7.96-16.82,12.77-27.19,13.47H35.82c-8.87-.95-17.54-4.57-23.94-10.87-6.88-6.5-10.94-15.61-11.88-24.98V35.77c.91-8.62,4.37-17.05,10.37-23.37C16.82,5.29,26,1.11,35.46,0ZM38.75,38.74c-.01,128.84-.02,257.68,0,386.52,144.83.01,289.67.01,434.5,0,.01-128.84.02-257.68,0-386.52-144.83-.01-289.67-.01-434.5,0ZM330.62,476.53c-13.15,7.61-23.7,19.67-29.23,33.85-6.25,15.85-7.13,33.58-3.71,50.2,3.43,16.06,12.72,31.02,26.45,40.23,15.92,10.94,35.89,14.09,54.85,13.29,10.45-.56,21.14-1.67,30.84-5.83-1.77-10.08-3.58-20.16-5.34-30.24-7.87,2.66-16.2,3.76-24.47,4.01-10.8.23-22.18-2.36-30.46-9.65-7.94-6.83-12-17.22-12.83-27.48-.92-11.24.73-23.29,7.47-32.64,6.13-8.67,16.33-13.83,26.74-15.09,11.39-1.33,23.1.37,33.73,4.68,2.53-10.16,5.03-20.33,7.52-30.49-8.78-4.08-18.54-5.42-28.1-6.13-18.37-1.27-37.45,1.87-53.46,11.29ZM99.83,467.34c11.07,48.18,22.15,96.36,33.25,144.53,14.3-.01,28.59,0,42.88,0,5.97-25.99,11.88-51.99,17.82-77.99,5.37,25.99,10.72,51.99,16.09,77.98,14.09.01,28.17,0,42.26,0,11.89-48.17,23.74-96.34,35.61-144.52-12.68.05-25.37-.14-38.04.1-5.59,27.63-11.42,55.21-17.09,82.82-5.3-27.64-10.57-55.29-15.88-82.92-13.8-.01-27.6-.01-41.39,0-5.98,27.9-11.8,55.83-17.86,83.71-5.78-27.92-11.47-55.87-17.42-83.75-13.41.08-26.82,0-40.23.04Z"/>
  <path class="cls-1" d="M252.36,64.5c8.22-.77,16.69,1.12,23.71,5.5,9.45,5.78,16.15,15.87,17.71,26.85,1.43,9.32-.74,19.15-6.04,26.96-6.11,9.23-16.4,15.52-27.41,16.7-16.17,2.1-32.88-7.52-39.29-22.48-5-11.09-4.23-24.58,2.08-35,6.08-10.35,17.28-17.47,29.24-18.53Z"/>
  <path class="cls-1" d="M205,156.12c6.91-5.89,16.01-8.7,25.01-8.7,17.33-.03,34.66-.04,51.99,0,8.97.03,18.1,2.78,24.98,8.68,8.72,7.33,14.17,17.59,19.3,27.56,10.88,21.9,21.42,43.98,32.14,65.97,3.59,6.88.99,16.13-5.57,20.24-5.82,3.94-14.18,3.17-19.34-1.55-2.57-2.23-3.91-5.43-5.45-8.38-11.24-21.77-22.48-43.55-33.74-65.32,8.88,43.22,17.85,86.42,26.74,129.64-8.92.03-17.84-.01-26.77.01v64.76c.25,5.78-2.51,11.61-7.3,14.91-6.15,4.49-15.25,4.1-20.99-.91-3.8-3.17-6.1-8.05-6.08-13-.05-21.92,0-43.84-.03-65.76-2.56-.01-5.12-.01-7.68,0-.01,20.23-.01,40.46,0,60.69,0,3.95.26,8.11-1.5,11.78-3.01,7.08-11.17,11.44-18.74,9.95-7.9-1.27-14.23-8.69-14.14-16.71-.05-21.9.01-43.81-.02-65.71-8.71-.02-17.41,0-26.11-.01,8.67-43.2,17.42-86.38,26.07-129.59-12,23.09-23.92,46.21-35.92,69.29-3.19,6.34-10.98,9.77-17.83,8.03-10.17-2.11-15.38-15.05-9.79-23.74,10.07-20.63,20.03-41.3,30.11-61.92,5.56-10.85,11.18-22.2,20.66-30.21Z"/>
</svg>