<?xml version="1.0" encoding="UTF-8"?>
<svg id="Layer_1" data-name="Layer 1" xmlns="http://www.w3.org/2000/svg" viewBox="0 0 512 512">
  <defs>
    <style>
      .cls-1 {
        fill: #0c3833;
      }

      .cls-1, .cls-2 {
        stroke-width: 0px;
      }

      .cls-2 {
        fill: #f5a900;
      }
    </style>
  </defs>
  <path class="cls-1" d="M224.51,0h2.95c28.2.45,55.84,12.9,74.91,33.65,17.18,18.42,27.66,43.06,28.44,68.28.39,11.85,1.2,23.82,4.77,35.2,3.53,12.82,10.12,24.47,16.01,36.3,7.7,15.28,15.5,30.51,23,45.9,5.41,11.51,10.84,23.15,13.79,35.58,7.68,34.29-2.02,71.97-25.56,98.11-14.93,16.94-35.06,29.28-57.02,34.63-10.05,2.57-20.47,3.35-30.82,3.36-11.33-.02-22.65,0-33.98-.01,0-32.93-.01-65.86.01-98.79,17.19-17.19,34.36-34.4,51.57-51.58,2.84-2.89,6.13-5.65,7.51-9.59,2.13-5.75.25-12.67-4.53-16.53-5.64-4.95-14.93-4.49-20.12.91-11.53,11.4-22.93,22.92-34.43,34.34-.01-45.6-.02-91.2,0-136.79-.09-4.72.56-9.8-1.86-14.08-3.05-5.84-10.21-9.07-16.6-7.44-6.56,1.45-11.57,7.74-11.5,14.46-.13,27.95,0,55.9-.06,83.85-11.3-11.26-22.56-22.55-33.86-33.82-3.14-3.26-7.61-5.27-12.18-4.86-7.22.35-13.53,6.67-13.87,13.88-.41,4.55,1.59,9.01,4.84,12.14,18.35,18.38,36.73,36.74,55.08,55.12,0,25.85.01,51.7-.01,77.54-11.48-11.41-22.87-22.91-34.38-34.3-5.51-5.82-15.69-5.87-21.19-.01-5.82,5.5-5.77,15.63.02,21.14,18.47,18.58,37.04,37.07,55.55,55.62.02,12.93.01,25.86.01,38.79-12.67-.03-25.34.06-38.01-.04-13.19-.17-26.42-2.32-38.79-7.01-23.83-8.75-44.37-25.98-57.35-47.78-12.6-20.81-17.7-45.81-15.15-69.94,1.69-17.11,9.04-32.88,16.35-48.2,10.04-20.53,20.55-40.84,30.77-61.29,6.94-14.24,11.36-29.82,11.9-45.7.48-7.17.41-14.39,1.65-21.48,4.18-27.38,19.73-52.76,42.06-69.11C181.68,7.55,203,.48,224.51,0Z"/>
  <path class="cls-2" d="M310.56,0h6.89c28.19.45,55.81,12.88,74.88,33.61,16.51,17.7,26.88,41.12,28.33,65.32.56,9.54.53,19.17,2.57,28.55,3.45,19.67,14.07,36.86,22.7,54.55,9.76,19.73,20.45,39.08,28.38,59.65,5.75,14.72,7.52,30.76,6.23,46.45-2.62,34.54-22.41,67.32-52.01,85.4-18.83,11.84-41.16,17.29-63.28,17.46,17.88-14.31,33.02-32.35,42.56-53.27,11.32-24.12,15.48-51.51,11.9-77.92-2.8-22.36-12.88-42.85-22.7-62.83-8.69-17.57-17.66-35-26.44-52.53-3.38-6.84-6.16-14.01-7.68-21.5-2.85-12.8-1.29-26.11-3.91-38.95-4.62-28.77-19.13-55.7-40.1-75.87-2.9-2.57-5.95-5.02-8.32-8.12Z"/>
  <path class="cls-2" d="M30.37,363.58c11.72-4.06,25.14-3.02,36.01,2.98,11.08,5.95,19.4,16.78,22.28,29.04,1.88,8.33,1.23,16.93,1.34,25.4,9.63.16,19.57-.8,28.86,2.33,13.46,4.27,24.54,15.35,28.81,28.81,3.2,9.62,2.14,19.9,2.33,29.86h61c0-20.33-.01-40.67,0-61h30c.01,20.33-.01,40.67,0,61h60c.01-21.07-.01-42.14,0-63.21,10.21-1.83,20.23-4.47,29.99-7.96.02,23.72,0,47.44.01,71.17,55.35.04,110.7-.07,166.05.05,7.38-.15,13.73,5.82,14.95,12.95v2.66c-.33,7.56-6.79,14.02-14.35,14.34H13.39c-7.15-.93-13.07-7.08-13.39-14.34v-92.62c.49-6.34,1.68-12.72,4.54-18.44,5.11-10.69,14.61-19.2,25.83-23.02Z"/>
</svg>