<?xml version="1.0" encoding="UTF-8"?>
<svg id="Layer_1" data-name="Layer 1" xmlns="http://www.w3.org/2000/svg" viewBox="0 0 495 193">
  <path d="M495,28.73v154.54c0,5.38-4.35,9.73-9.73,9.73H25.73c-5.38,0-9.73-4.35-9.73-9.73V28.73c0-5.38,4.35-9.73,9.73-9.73h390.64c4.41,4.34,10.46,7,17.13,7s12.72-2.66,17.13-7h34.64c5.38,0,9.73,4.35,9.73,9.73Z" fill="#fff" opacity=".18" stroke-width="0"/>
  <path d="M479,11.18v151.64c0,6.17-5.01,11.18-11.18,11.18H11.18c-6.17,0-11.18-5.01-11.18-11.18V11.18C0,5.01,5.01,0,11.18,0h390.84s1.76.1,3.03.62c.09.04.17.07.25.12.17.09.34.2.52.31.02.01.03.02.05.03.08.07.16.12.22.15,1.36.95,2.81,2.62,3.48,5.54.03.11.05.22.08.31h0c1.05,4.53,3.35,8.57,6.53,11.74.06.06.12.12.19.18,4.41,4.34,10.46,7,17.13,7s12.72-2.66,17.13-7c2.81-2.74,4.96-6.17,6.2-10.01.01-.01.01-.03.02-.05,1.96-4.85,5.54-7.25,7.59-8.28.08-.04.15-.07.22-.11.01,0,.01-.01.02-.01.22-.1.42-.19.59-.27.03-.01.06-.02.09-.03.67-.19,1.42-.24,1.42-.24h1.04c6.17,0,11.18,5.01,11.18,11.18Z" fill="#fff" stroke-width="0"/>
  <path d="M464.66.55c-.14.1-.21.13-.22.11.08-.04.15-.07.22-.11Z" fill="#fff" stroke-width="0"/>
</svg>