<?xml version="1.0" encoding="UTF-8"?>
<svg id="Layer_1" data-name="Layer 1" xmlns="http://www.w3.org/2000/svg" viewBox="0 0 26.32 26.32">
  <g id="style_bulk" data-name="style=bulk">
    <g id="web">
      <g id="vector">
        <path d="M24.95,7.29c-1.29.39-3.54,1.03-5.94,1.52-.55-3.37-1.53-6.73-1.99-8.25,3.47,1.06,6.34,3.52,7.94,6.72Z" fill="#b8a27c" stroke-width="0"/>
        <path d="M17.06,9.18c-1.36.22-2.71.36-3.9.36s-2.54-.14-3.9-.36c.52-3.19,1.45-6.44,1.93-8,.12-.4.17-.55.25-.76.04-.1.08-.2.14-.33.52-.06,1.04-.09,1.57-.09s1.1.03,1.64.1c.01.04.02.08.03.12.03.11.08.26.16.52v.03c.41,1.29,1.49,4.89,2.07,8.41Z" fill="#b8a27c" stroke-width="0"/>
        <path d="M7.32,8.82c.55-3.35,1.52-6.69,1.98-8.22v-.03C5.84,1.63,2.97,4.09,1.38,7.29c1.29.39,3.54,1.03,5.94,1.52Z" fill="#b8a27c" stroke-width="0"/>
        <path d="M13.16,19.41c1.1,0,2.3-.11,3.53-.29-.52,2.49-1.18,4.78-1.56,6.01-.12.4-.17.55-.25.76-.04.1-.08.2-.14.33-.52.06-1.04.09-1.57.09s-1.06-.03-1.57-.09c-.06-.13-.1-.22-.14-.33-.08-.21-.13-.37-.25-.76-.38-1.23-1.04-3.53-1.56-6.01,1.22.17,2.43.28,3.53.28Z" fill="#b8a27c" stroke-width="0"/>
        <path d="M4.44,18.08c-1.63-.41-3.02-.81-3.86-1.07,1.27,4.17,4.57,7.47,8.74,8.74v-.03c-.42-1.33-1.2-4.04-1.76-6.94-1.09-.21-2.15-.45-3.11-.69Z" fill="#b8a27c" stroke-width="0"/>
        <path d="M25.72,17.02c-1.33.41-4.04,1.19-6.94,1.75-.56,2.9-1.35,5.62-1.75,6.94v.03c4.16-1.27,7.46-4.57,8.73-8.74h-.03Z" fill="#b8a27c" stroke-width="0"/>
      </g>
      <g id="vector_2" data-name="vector 2">
        <path d="M.63,9.13c-.41,1.27-.63,2.63-.63,4.03,0,.55.03,1.09.1,1.62l.21.07h0s0,0,0,0h0c.07.02,2.02.67,4.6,1.31.73.18,1.5.36,2.28.52-.18-1.22-.29-2.43-.29-3.53,0-.75.05-1.56.14-2.38-2.62-.53-5.03-1.22-6.32-1.62h0s-.1-.03-.1-.03Z" fill="#f5f2ed" stroke-width="0"/>
        <path d="M.14,14.82s.08.01.1.01c.01,0,.03,0,.03,0h.01s0,0,0,0h0s0,0,0,0c0,0-.08-.02-.16-.03Z" fill="#f5f2ed" stroke-width="0"/>
        <path d="M19.27,10.78c.09.83.14,1.63.14,2.38,0,1.1-.11,2.31-.29,3.53,2.49-.52,4.78-1.18,6.01-1.56.4-.12.55-.17.76-.25.1-.04.2-.08.33-.14.06-.52.09-1.04.09-1.57,0-1.41-.22-2.76-.63-4.03l-.11.03c-1.29.39-3.7,1.08-6.32,1.62Z" fill="#f5f2ed" stroke-width="0"/>
        <path d="M17.33,11.13c.07.71.11,1.39.11,2.03,0,1.2-.14,2.55-.37,3.91-1.37.22-2.72.37-3.91.37s-2.54-.14-3.91-.37c-.22-1.37-.37-2.72-.37-3.91,0-.64.04-1.32.11-2.03,1.44.23,2.87.38,4.16.38s2.73-.15,4.16-.38Z" fill="#f5f2ed" stroke-width="0"/>
      </g>
    </g>
  </g>
</svg>