<?xml version="1.0" encoding="UTF-8"?>
<svg id="Layer_1" data-name="Layer 1" xmlns="http://www.w3.org/2000/svg" viewBox="0 0 38.01 38">
  <path d="M38.01,19c0,.24,0,.47-.01.71,0,.07,0,.15,0,.22,0,.08,0,.15-.01.23-.13,2.08-.6,4.14-1.4,6.1-.5,1.2-1.11,2.35-1.84,3.41-.2.3-.42.6-.64.88-.93,1.21-1.99,2.3-3.18,3.25-.06.05-.12.1-.18.14-.06.05-.12.09-.18.14-.06.05-.13.1-.19.14-.05.04-.1.07-.15.11-.12.09-.25.18-.37.27-.05.04-.11.07-.16.11-.05.04-.11.07-.16.11-.32.22-.66.42-1,.62-2.17,1.26-4.55,2.06-7.01,2.39-.04,0-.08.01-.12.02-.15.02-.3.04-.46.05-.64.07-1.29.1-1.94.1-.49,0-.98-.02-1.46-.06-.08,0-.16-.01-.24-.02-.08,0-.16-.01-.24-.02-.08,0-.16-.02-.24-.03-.22-.02-.44-.05-.65-.09-.13-.02-.26-.04-.39-.06-2.63-.45-5.13-1.45-7.33-2.92-.05-.03-.1-.07-.15-.1-.11-.07-.22-.15-.33-.23-.11-.08-.23-.16-.34-.25-1.22-.91-2.33-1.97-3.29-3.14-.1-.12-.19-.24-.29-.36-.04-.06-.09-.11-.13-.17-.17-.22-.33-.43-.48-.66-.03-.04-.06-.08-.09-.13-.04-.05-.07-.11-.11-.16-1.62-2.41-2.68-5.18-3.07-8.09-.06-.42-.1-.84-.13-1.26,0-.05,0-.11,0-.16,0-.05,0-.11,0-.16,0-.05,0-.11,0-.16,0-.05,0-.11,0-.16,0-.11,0-.22,0-.34,0-.04,0-.07,0-.11,0-.06,0-.12,0-.18,0-.09,0-.18,0-.27,0-.03,0-.07,0-.1,0-.06,0-.12,0-.18,0-.02,0-.05,0-.07,0-.07,0-.15,0-.22,0-.02,0-.03,0-.05.13-2.79.88-5.53,2.19-8.01.14-.26.21-.39.34-.43.13-.04.26.04.52.19l11.71,6.72c.25.14.37.21.41.32.04.11-.02.26-.14.56-.26.66-.35,1.38-.25,2.1.12.92.55,1.78,1.21,2.44.66.66,1.52,1.08,2.44,1.2.92.12,1.86-.07,2.67-.53.81-.47,1.44-1.19,1.79-2.05.36-.86.42-1.81.18-2.71-.24-.9-.77-1.69-1.51-2.26-.57-.44-1.24-.72-1.94-.83-.32-.05-.48-.07-.55-.16-.08-.09-.08-.23-.08-.52V.63c0-.3,0-.45.1-.54.1-.09.24-.09.54-.08,3.96.13,7.78,1.5,10.93,3.91,3.32,2.54,5.7,6.11,6.79,10.15.34,1.26.55,2.55.62,3.84,0,.05,0,.1,0,.16,0,.05,0,.1,0,.16,0,.04,0,.08,0,.12,0,.11,0,.23,0,.35v.13c0,.06,0,.12,0,.18Z" fill="#efe7da" stroke-width="0"/>
  <path d="M12,31.22c-.15.26-.23.39-.19.52.04.13.17.2.43.33,1.82.95,3.82,1.51,5.87,1.64,2.26.15,4.53-.23,6.62-1.09,2.09-.87,3.96-2.21,5.46-3.91,1.49-1.7,2.58-3.73,3.16-5.92.59-2.19.66-4.49.22-6.71-.44-2.22-1.39-4.32-2.77-6.11-1.38-1.8-3.16-3.26-5.19-4.26-1.84-.91-3.85-1.42-5.9-1.51-.29-.01-.44-.02-.54.07-.1.09-.1.24-.1.55v9.3c0,.29,0,.43.08.52.08.09.24.11.55.16.43.06.84.2,1.23.39.58.29,1.09.7,1.48,1.22.39.51.66,1.11.79,1.74.13.63.1,1.29-.06,1.91-.17.63-.48,1.2-.9,1.69-.43.49-.96.87-1.56,1.12s-1.24.35-1.89.31c-.43-.03-.86-.12-1.26-.28-.3-.12-.45-.18-.56-.14s-.18.16-.33.41l-4.65,8.05Z" fill="#b8a27c" stroke-width="0"/>
</svg>