<?xml version="1.0" encoding="UTF-8"?>
<svg id="Layer_1" data-name="Layer 1" xmlns="http://www.w3.org/2000/svg" viewBox="0 0 28.29 28.29">
  <path d="M16.78,28.29h-5.26c-2.56,0-4.41,0-5.91-.2-1.72-.23-2.88-.73-3.78-1.63-.9-.9-1.4-2.06-1.63-3.78-.2-1.5-.2-3.35-.2-5.91s0-4.41.2-5.91c.23-1.72.73-2.88,1.63-3.78.99-.99,2.28-1.49,4.32-1.69.54-.05,1.03.34,1.08.89.05.54-.34,1.03-.89,1.08-1.57.15-2.48.48-3.12,1.12-1.25,1.25-1.25,3.6-1.25,8.29s0,7.03,1.25,8.29c1.25,1.25,3.6,1.25,8.29,1.25h5.26c4.68,0,7.03,0,8.29-1.25,1.25-1.25,1.25-3.6,1.25-8.29,0-.55.44-.99.99-.99s.99.44.99.99c0,2.56,0,4.41-.2,5.91-.23,1.72-.73,2.88-1.63,3.78-.9.9-2.06,1.4-3.78,1.63-1.5.2-3.35.2-5.91.2ZM27.17,12.5c-.5,0-.93-.38-.98-.89-.15-1.57-.48-2.48-1.12-3.12-.64-.64-1.55-.97-3.12-1.12-.54-.05-.94-.54-.89-1.08s.54-.94,1.08-.89c2.05.2,3.34.71,4.32,1.69.99.99,1.49,2.28,1.69,4.32.05.54-.34,1.03-.89,1.08-.03,0-.07,0-.1,0Z" fill="#fff" stroke-width="0"/>
  <path d="M16.78,7.23h-5.26c-.55,0-.99-.44-.99-.99s.44-.99.99-.99h5.26c.55,0,.99.44.99.99s-.44.99-.99.99Z" fill="#b8a27c" stroke-width="0"/>
  <path d="M15.46,11.18h-2.63c-.55,0-.99-.44-.99-.99s.44-.99.99-.99h2.63c.55,0,.99.44.99.99s-.44.99-.99.99Z" fill="#b8a27c" stroke-width="0"/>
  <path d="M14.15,17.89c-1.79,0-3.17-1.15-5.69-3.25l-1.89-1.58c-.52-.44-.87-.72-1.08-1.19-.22-.46-.22-.91-.22-1.59v-2.71c0-3.26,0-5.06,1.25-6.31C7.65.12,9.3.02,11.51,0c0,0,0,0,0,0,.54,0,.98.44.99.98,0,.55-.43.99-.98,1-2.01.02-3.06.12-3.61.67-.65.65-.67,1.9-.67,4.92v2.71c0,.31,0,.69.03.76.03.07.32.31.56.51l1.89,1.58c2.23,1.86,3.35,2.79,4.42,2.79.58,0,1.16-.25,2.06-.89.44-.32,1.06-.22,1.38.23.32.44.22,1.06-.23,1.38-1.25.9-2.18,1.26-3.21,1.26ZM20.15,14.08c-.28,0-.56-.12-.76-.36-.35-.42-.29-1.04.13-1.39l.95-.79c.24-.2.53-.44.56-.51.03-.07.03-.45.03-.76v-2.71c0-3.02-.03-4.27-.67-4.92-.55-.55-1.6-.65-3.61-.67-.54,0-.98-.45-.98-1,0-.54.45-.98.99-.98,0,0,0,0,0,0,2.21.02,3.86.12,4.99,1.25,1.25,1.25,1.25,3.05,1.25,6.31v2.71c0,.68,0,1.13-.22,1.59-.22.46-.56.75-1.08,1.19l-.95.79c-.18.15-.41.23-.63.23Z" fill="#fff" stroke-width="0"/>
</svg>