<?xml version="1.0" encoding="UTF-8"?>
<svg id="Layer_1" data-name="Layer 1" xmlns="http://www.w3.org/2000/svg" viewBox="0 0 23.84 26.49">
  <path d="M20.53,15.9h-3.31c-.73,0-1.32-.59-1.32-1.32s.59-1.32,1.32-1.32h3.31c.37,0,.66-.3.66-.66s-.3-.66-.66-.66h-1.32c-1.83,0-3.31-1.49-3.31-3.31s1.49-3.31,3.31-3.31h3.31c.73,0,1.32.59,1.32,1.32s-.59,1.32-1.32,1.32h-3.31c-.37,0-.66.3-.66.66s.3.66.66.66h1.32c1.83,0,3.31,1.49,3.31,3.31s-1.49,3.31-3.31,3.31Z" fill="#b8a27c" stroke-width="0"/>
  <path d="M14.57,21.2h-7.95c-.73,0-1.32-.59-1.32-1.32s.59-1.32,1.32-1.32h7.95c.73,0,1.32.59,1.32,1.32s-.59,1.32-1.32,1.32ZM11.92,15.9h-5.3c-.73,0-1.32-.59-1.32-1.32s.59-1.32,1.32-1.32h5.3c.73,0,1.32.59,1.32,1.32s-.59,1.32-1.32,1.32Z" fill="#fff" stroke-width="0"/>
  <path d="M18.55,26.49H2.65c-1.46,0-2.65-1.19-2.65-2.65V2.65C0,1.19,1.19,0,2.65,0h13.25c.73,0,1.32.59,1.32,1.32s-.59,1.32-1.32,1.32H2.65v21.2h15.9v-2.65c0-.73.59-1.32,1.32-1.32s1.32.59,1.32,1.32v2.65c0,1.46-1.19,2.65-2.65,2.65Z" fill="#fff" stroke-width="0"/>
  <path d="M19.5,17.74c-.73,0-1.32-.59-1.32-1.32v-1.32c0-.73.59-1.32,1.32-1.32s1.32.59,1.32,1.32v1.32c0,.73-.59,1.32-1.32,1.32Z" fill="#b8a27c" stroke-width="0"/>
  <path d="M19.5,7.47c-.73,0-1.32-.59-1.32-1.32v-1.32c0-.73.59-1.32,1.32-1.32s1.32.59,1.32,1.32v1.32c0,.73-.59,1.32-1.32,1.32Z" fill="#b8a27c" stroke-width="0"/>
</svg>