<?xml version="1.0" encoding="UTF-8"?>
<svg id="Layer_1" data-name="Layer 1" xmlns="http://www.w3.org/2000/svg" viewBox="0 0 23.37 23.37">
  <path d="M6.68,6.68H0V0h6.68v6.68ZM1.67,5.01h3.34V1.67H1.67v3.34Z" fill="#fff" stroke-width="0"/>
  <path d="M23.37,23.37h-6.68v-6.68h6.68v6.68ZM18.36,21.7h3.34v-3.34h-3.34v3.34Z" fill="#fff" stroke-width="0"/>
  <path d="M15.02,20.87H5.01c-2.77,0-5.01-2.24-5.01-5.01s2.24-5.01,5.01-5.01v1.67c-1.84,0-3.34,1.49-3.34,3.34s1.49,3.34,3.34,3.34h10.02v1.67Z" fill="#fff" stroke-width="0"/>
  <path d="M18.36,12.52v-1.67c1.84,0,3.34-1.49,3.34-3.34s-1.49-3.34-3.34-3.34h-10.02v-1.67h10.02c2.77,0,5.01,2.24,5.01,5.01s-2.24,5.01-5.01,5.01Z" fill="#fff" stroke-width="0"/>
  <path d="M14.19,7.51h-5.01l-2.5,3.34,5.01,5.01,5.01-5.01-2.5-3.34Z" fill="#b8a27c" stroke-width="0"/>
</svg>