<?xml version="1.0" encoding="UTF-8"?>
<svg id="Layer_1" data-name="Layer 1" xmlns="http://www.w3.org/2000/svg" viewBox="0 0 27.84 21.16">
  <path d="M3.63,16.43c-.61,0-1.11.5-1.11,1.11s.5,1.11,1.11,1.11,1.11-.5,1.11-1.11-.5-1.11-1.11-1.11Z" fill="#b8a27c" stroke-width="0"/>
  <g>
    <path d="M23.43,13.9c-2,0-3.63,1.63-3.63,3.63s1.63,3.63,3.63,3.63,3.63-1.63,3.63-3.63c0-2-1.63-3.63-3.63-3.63ZM23.43,19.48c-1.07,0-1.95-.87-1.95-1.95s.87-1.95,1.95-1.95,1.95.87,1.95,1.95c0,1.07-.87,1.95-1.95,1.95Z" fill="#f5f2ed" stroke-width="0"/>
    <path d="M23.43,16.43c-.61,0-1.11.5-1.11,1.11s.5,1.11,1.11,1.11,1.11-.5,1.11-1.11-.5-1.11-1.11-1.11Z" fill="#f5f2ed" stroke-width="0"/>
    <path d="M17.01,0v7.71h-4.53v1.68h1.63v2.37h-4.4v-6.87h2.03v-1.68h-5.93L1.92,14.33c-1.14.61-1.92,1.82-1.92,3.2,0,2,1.63,3.63,3.63,3.63s3.63-1.63,3.63-3.63c0-.2-.02-.4-.05-.6h11.76l.17-.61c.54-1.92,2.31-3.26,4.3-3.26,1.19,0,2.31.47,3.16,1.31l1.19-1.19c-.96-.96-2.18-1.56-3.51-1.75v-2.05h3.57V0h-10.83ZM3.63,19.48c-1.07,0-1.95-.87-1.95-1.95,0-.83.52-1.53,1.25-1.82.02,0,.03-.01.05-.02.01,0,.02,0,.04-.01.02,0,.03-.01.05-.02.01,0,.03,0,.04-.01.02,0,.03,0,.05-.01.01,0,.03,0,.04-.01.02,0,.03,0,.05-.01.02,0,.03,0,.05,0,.01,0,.03,0,.04,0,.02,0,.04,0,.06,0,.01,0,.03,0,.04,0,.02,0,.04,0,.06,0,.01,0,.02,0,.03,0,.03,0,.06,0,.1,0,.04,0,.08,0,.11,0,.01,0,.03,0,.04,0,.02,0,.05,0,.07,0,.02,0,.04,0,.05,0,.02,0,.03,0,.05,0,.5.09.94.36,1.23.75,0,0,0,0,0,0,.24.32.39.73.39,1.16,0,1.07-.87,1.95-1.95,1.95ZM22.59,11.44c-2.18.3-4.05,1.76-4.87,3.81H6.45c-.08-.1-.17-.19-.26-.28-.56-.56-1.31-.94-2.15-1.04,0,0,0,0-.01,0-.05,0-.1,0-.15-.01-.01,0-.03,0-.04,0l3.16-9.02h1.02v8.55h7.76v-4.05h6.8v2.05h0ZM26.16,7.71h-7.47V1.68h2.89v2.15h1.68V1.68h2.89v6.03h0Z" fill="#b8a27c" stroke-width="0"/>
  </g>
</svg>