
<svg id="Layer_1" data-name="Layer 1" xmlns="http://www.w3.org/2000/svg" viewBox="0 0 144.36 43.22">
  <path d="M.84,13.62C4.93,7.33,12.03,3.43,19.38,1.91c7.35-1.52,14.97-.91,22.39.26,8.79,1.38,17.58,3.56,25.35,7.89s14.5,10.99,17.56,19.34c.37,1.02.7,2.11.53,3.19-.25,1.62-1.58,2.89-3.04,3.62-4.58,2.29-10.47.06-13.6-3.99-3.13-4.05-3.99-9.43-3.91-14.55.02-1.19.1-2.45.76-3.44,1.27-1.92,4-2.03,6.29-1.85,22.55,1.77,43.43,11.86,62.63,24.15" fill="none" stroke="#b8a27c" stroke-miterlimit="10" stroke-width="2"/>
  <path d="M144.36,43.22c-5.9-1.37-13.76-2.25-19.51-1.48l8.11-6.04,2.37-9.83c1.55,5.58,5.45,12.47,9.03,17.35Z" fill="#b8a27c" stroke-width="0"/>
</svg>