<?xml version="1.0" encoding="UTF-8"?>
<svg id="Layer_1" data-name="Layer 1" xmlns="http://www.w3.org/2000/svg" viewBox="0 0 314.21 217.16">
  <path d="M314.21,10.96v152.08c0,6.05-4.91,10.96-10.96,10.96H76.98s-1.76-.1-3.03-.62c-.09-.04-.17-.07-.25-.12-.17-.09-.34-.2-.52-.31-.02-.01-.03-.02-.05-.03-.08-.07-.16-.12-.22-.15-1.36-.95-2.81-2.62-3.48-5.54-.03-.11-.05-.22-.08-.31h0c-1.05-4.53-3.35-8.57-6.53-11.74-.06-.06-.12-.12-.19-.18-4.41-4.34-10.46-7-17.13-7s-12.72,2.66-17.13,7c-2.81,2.74-4.96,6.17-6.2,10.01-.01.01-.01.03-.02.05-1.96,4.85-5.54,7.25-7.59,8.28-.08.04-.15.07-.22.11-.01,0-.01.01-.02.01-.22.1-.42.19-.59.27-.03,0-.06.02-.09.03-.67.19-1.42.24-1.42.24h-1.04c-.75,0-1.49-.07-2.2-.22-5.12-1.02-8.98-5.54-8.98-10.96V11.18C0,5,5.01,0,11.18,0h292.07c6.05,0,10.96,4.9,10.96,10.96Z" fill="#ef4136" stroke-width="0"/>
  <path d="M100.47,217.16H35.71s.75-.05,1.42-.24c.03-.01.06-.02.09-.03.17-.08.37-.17.59-.27.01,0,.01-.01.02-.01.07-.04.14-.07.22-.11,2.05-1.03,5.63-3.43,7.59-8.28.01-.02.01-.04.02-.05,1.24-3.84,3.39-7.27,6.2-10.01,4.41-4.34,10.46-7,17.13-7s12.72,2.66,17.13,7c.07.06.13.12.19.18,3.18,3.17,5.48,7.21,6.53,11.73h0c.03.1.05.21.08.32.67,2.92,2.12,4.59,3.48,5.54.06.03.14.08.22.15.02,0,.03.02.05.03.18.11.35.22.52.31.08.05.16.08.25.12,1.27.52,3.03.62,3.03.62Z" fill="#fff" stroke-width="0"/>
  <path d="M95.88,137.97v36.03h-18.9s-1.76-.1-3.03-.62c-.09-.04-.17-.07-.25-.12-.17-.09-.34-.2-.52-.31-.02-.01-.03-.02-.05-.03-.08-.07-.16-.12-.22-.15-1.36-.95-2.81-2.62-3.48-5.54-.03-.11-.05-.22-.08-.31h0c-1.05-4.53-3.35-8.57-6.53-11.74-.06-.06-.12-.12-.19-.18-4.41-4.34-10.46-7-17.13-7s-12.72,2.66-17.13,7c-2.81,2.74-4.96,6.17-6.2,10.01-.01.01-.01.03-.02.05-1.96,4.85-5.54,7.25-7.59,8.28-.08.04-.15.07-.22.11-.01,0-.01.01-.02.01-.22.1-.42.19-.59.27-.03,0-.06.02-.09.03-.67.19-1.42.24-1.42.24h-3.24v-36.03h86.9Z" fill="#fff" stroke-width="0"/>
</svg>