<?xml version="1.0" encoding="UTF-8"?>
<svg id="Layer_1" data-name="Layer 1" xmlns="http://www.w3.org/2000/svg" viewBox="0 0 64.76 26">
  <path d="M64.76,26H0s.75-.05,1.42-.24c.03-.01.06-.03.09-.03.17-.08.37-.17.59-.27.01,0,.01-.01.02-.01.07-.04.14-.07.22-.11,2.05-1.03,5.63-3.43,7.59-8.28,0-.02,0-.04.02-.05,1.24-3.84,3.39-7.27,6.2-10.01C20.56,2.66,26.61,0,33.28,0s12.72,2.66,17.13,7c.07.06.13.12.19.18,1.59,1.58,2.96,3.39,4.06,5.36,1.11,1.97,1.94,4.12,2.47,6.38.03.09.05.2.08.31.67,2.92,2.12,4.59,3.48,5.54.06.03.14.08.22.15.02.01.03.02.05.03.18.11.35.22.52.31.08.05.16.08.25.12,1.27.52,3.03.62,3.03.62Z" fill="#fff" stroke-width="0"/>
</svg>