<svg xmlns="http://www.w3.org/2000/svg" xmlns:xlink="http://www.w3.org/1999/xlink" fill="#000000" height="800px" width="800px" version="1.1" id="Layer_1" viewBox="0 0 512.002 512.002" xml:space="preserve">
<g>
	<g>
		<g>
			<path d="M512,362.625v-79.36c0-50.417-40.847-91.264-91.264-91.264H256c-36.003,0-33.934,0.529-41.341-8.03     c-21.036-24.343-48.538-41.661-78.665-48.673c-45.383-10.542-82.312,0.111-107.822,26.01C9.892,179.905,0,207.134,0,234.668     v85.333c0,9.7,2.639,18.651,7.333,26.598c-4.484,3.911-7.331,9.651-7.331,16.068v54.784c0,28.657,23.226,51.883,51.883,51.883H64     v21.333c0,11.782,9.551,21.333,21.333,21.333c11.782,0,21.333-9.551,21.333-21.333v-21.333h298.667v21.333     c0,11.782,9.551,21.333,21.333,21.333S448,502.45,448,490.668v-21.333h12.12c28.657,0,51.883-23.226,51.883-51.883v-54.784     C512.002,362.653,512,362.64,512,362.625z M42.667,234.668c0-16.89,5.965-33.309,15.918-43.435     c15.058-15.288,36.811-21.563,67.746-14.377c21.042,4.898,40.742,17.303,56.056,35.025     c17.877,20.656,26.216,22.787,73.613,22.787h164.736c26.853,0,48.597,21.745,48.597,48.597v57.715l-57.313-0.944l-4.07,0.324     c-2.366,0.419-4.592,0.735-6.792,0.975H166.076c2.214-4.901,3.675-10.13,4.276-15.632c0.005-0.046,0.011-0.092,0.016-0.138     c0.09-0.843,0.158-1.692,0.207-2.548c0.009-0.15,0.015-0.3,0.022-0.45c0.041-0.85,0.069-1.704,0.069-2.565     c0-37.609-39.59-64-85.333-64c-0.862,0-1.72,0.013-2.577,0.031c-0.253,0.005-0.505,0.013-0.758,0.02     c-0.638,0.018-1.273,0.041-1.908,0.069c-0.248,0.011-0.496,0.021-0.743,0.034c-0.848,0.043-1.694,0.092-2.537,0.153     c-0.047,0.003-0.094,0.008-0.142,0.012c-0.798,0.059-1.592,0.127-2.384,0.202c-0.252,0.024-0.503,0.05-0.755,0.075     c-0.625,0.063-1.247,0.131-1.868,0.204c-0.235,0.028-0.471,0.054-0.706,0.083c-0.829,0.103-1.655,0.212-2.477,0.332     c-0.077,0.011-0.152,0.024-0.229,0.035c-0.748,0.111-1.492,0.23-2.233,0.355c-0.246,0.042-0.491,0.085-0.737,0.128     c-0.609,0.107-1.215,0.219-1.82,0.335c-0.224,0.043-0.449,0.085-0.672,0.129c-0.802,0.16-1.601,0.326-2.395,0.503     c-0.103,0.023-0.204,0.048-0.307,0.071c-0.695,0.157-1.386,0.32-2.074,0.489c-0.24,0.059-0.479,0.12-0.719,0.18     c-0.59,0.149-1.176,0.304-1.761,0.462c-0.211,0.057-0.422,0.113-0.632,0.171c-0.771,0.214-1.537,0.436-2.297,0.666     c-0.124,0.037-0.246,0.077-0.369,0.115c-0.644,0.198-1.284,0.401-1.921,0.61c-0.23,0.076-0.46,0.153-0.689,0.23     c-0.57,0.192-1.137,0.388-1.701,0.589c-0.193,0.069-0.387,0.136-0.579,0.206c-0.735,0.267-1.465,0.541-2.189,0.823     c-0.137,0.053-0.272,0.11-0.409,0.164c-0.593,0.235-1.183,0.474-1.768,0.719c-0.103,0.043-0.209,0.083-0.312,0.127V234.668z      M85.333,298.668c24.963,0,42.667,11.801,42.667,21.333c0,0.258-0.019,0.518-0.045,0.778c-0.018,0.173-0.044,0.346-0.074,0.521     c-0.009,0.057-0.018,0.115-0.029,0.172c-1.4,7.212-12.816,15.917-30.914,18.832c-0.72,0.116-1.409,0.268-2.084,0.435     c-3.031,0.382-6.21,0.595-9.52,0.595c-24.963,0-42.667-11.801-42.667-21.333S60.37,298.668,85.333,298.668z M469.335,417.452     c0,5.093-4.123,9.216-9.216,9.216H51.885c-5.093,0-9.216-4.123-9.216-9.216v-33.451H147.84c0.741,0.098,1.438,0.181,2.059,0.243     c0.788,0.076,0.788,0.076,1.831,0.138c0.671,0.036,0.671,0.036,2.629-0.03c0.764,0.076,1.14,0.108,2.497-0.35l207.728,0.021     c3.815,0,6.97,0.074,12.644,0.266c5.824,0.197,7.531,0.246,10.429,0.278c5.496,0.06,10.543-0.105,15.637-0.565h66.042V417.452z"/>
			<path d="M213.333,149.334h213.333c11.782,0,21.333-9.551,21.333-21.333V21.334c0-11.782-9.551-21.333-21.333-21.333H213.333     C201.551,0.001,192,9.552,192,21.334v106.667C192,139.783,201.551,149.334,213.333,149.334z M234.667,42.668h170.667v64H234.667     V42.668z"/>
		</g>
	</g>
</g>
</svg>